# xmcd CD database file
#
# Track frame offsets:
#	150
#	18767
#	33855
#	71397
#	98470
#	121125
#	149322
#	175487
#	204975
#	259707
#
# Disc length: 3725 seconds
#
# Revision: 0
# Processed by: cddbd v1.4PL0 Copyright (c) Steve Scherf et al.
# Submitted via: CDex 1.50Beta7
#
DISCID=780e8b0a
DTITLE=Piirpauke - Sillat
DYEAR=2002
DGENRE=Jazz
TTITLE0=la fuente (instr)
TTITLE1=tuulantei
TTITLE2=kesäillalla
TTITLE3=toituaal
TTITLE4=cökertme
TTITLE5=punapaula
TTITLE6=neitonen
TTITLE7=taivahan mannaa
TTITLE8=la fuente
TTITLE9=erlkönig
EXTD=YEAR: 2002
EXTT0=
EXTT1=
EXTT2=
EXTT3=
EXTT4=
EXTT5=
EXTT6=
EXTT7=
EXTT8=
EXTT9=
PLAYORDER=
